<svg width="816" height="920" viewBox="0 0 816 920" fill="none" xmlns="http://www.w3.org/2000/svg">
<g clip-path="url(#clip0_34_59)">
<path d="M223.934 414.945C268.031 381.253 403.293 391.45 403.293 391.45C403.293 391.45 555.897 385.508 595.535 414.945C654 458.365 654 648.573 654 648.573L403.293 828L162 648.573C162 648.573 179.837 448.637 223.934 414.945Z" fill="#19B596"/>
<path d="M412.998 502.422C412.998 502.422 321.501 411.19 328.001 394.132C334.501 377.074 483.306 380.049 489.5 394.129C497.001 411.179 412.998 502.422 412.998 502.422Z" fill="#11856E"/>
<path d="M221.909 617.273V600.909L272.636 580.591V597.773L240.318 608.955L240.864 608.136V610.045L240.318 609.227L272.636 620.409V637.591L221.909 617.273ZM302.79 644L282.199 574.182H303.335L312.881 617.136H313.426L324.744 574.182H341.381L352.699 617.273H353.244L362.79 574.182H383.926L363.335 644H345.199L333.335 605H332.79L320.926 644H302.79ZM390.062 644V574.182H440.381V589.455H409.017V601.455H437.79V616.727H409.017V628.727H440.244V644H390.062ZM449.781 644V574.182H480.054C485.372 574.182 489.838 574.898 493.452 576.33C497.088 577.761 499.827 579.784 501.668 582.398C503.531 585.011 504.463 588.091 504.463 591.636C504.463 594.205 503.895 596.545 502.759 598.659C501.645 600.773 500.077 602.545 498.054 603.977C496.031 605.386 493.668 606.364 490.963 606.909V607.591C493.963 607.705 496.69 608.466 499.145 609.875C501.599 611.261 503.554 613.182 505.009 615.636C506.463 618.068 507.19 620.932 507.19 624.227C507.19 628.045 506.19 631.443 504.19 634.42C502.213 637.398 499.395 639.739 495.736 641.443C492.077 643.148 487.713 644 482.645 644H449.781ZM468.736 628.864H477.599C480.781 628.864 483.168 628.273 484.759 627.091C486.349 625.886 487.145 624.114 487.145 621.773C487.145 620.136 486.77 618.75 486.02 617.614C485.27 616.477 484.202 615.614 482.815 615.023C481.452 614.432 479.804 614.136 477.872 614.136H468.736V628.864ZM468.736 602.409H476.509C478.168 602.409 479.634 602.148 480.906 601.625C482.179 601.102 483.168 600.352 483.872 599.375C484.599 598.375 484.963 597.159 484.963 595.727C484.963 593.568 484.19 591.92 482.645 590.784C481.099 589.625 479.145 589.045 476.781 589.045H468.736V602.409ZM548.406 570.909L525.906 654.5H509.952L532.452 570.909H548.406ZM607.605 623.818L556.878 644.136V626.955L589.196 615.773L588.651 616.591V614.682L589.196 615.5L556.878 604.318V587.136L607.605 607.455V623.818Z" fill="white"/>
<path fill-rule="evenodd" clip-rule="evenodd" d="M393.946 86.6445L371.922 157.591C350.738 159.989 330.141 164.326 310.314 170.42L264.705 109.381L221.036 128.151L228.37 208.161C212.09 218.471 196.742 230.122 182.482 242.957L119.888 217.2L89.0888 253.403L127.548 306.139C114.115 326.061 102.729 347.477 93.6913 370.086L29.2955 370.216L14.6813 415.446L72.4983 450.758C70.4759 465.786 69.4317 481.125 69.4317 496.708C69.4317 501.752 69.5411 506.77 69.7577 511.761L0 550.263L8.9667 596.942L85.4885 600.463C93.3154 625.019 103.846 648.368 116.731 670.161L69.266 736.208L97.3886 774.528L173.867 742.432C191.172 759.117 210.235 773.991 230.751 786.749L216.867 870.147L259.038 892.075L317.266 825.05C333.869 829.767 350.986 833.259 368.516 835.421L394.539 919.253L442.067 919.898L463.969 833.878C481.427 831.144 498.445 827.086 514.919 821.811L580.221 884.816L622.188 862.499L600.901 780.157C621.495 766.313 640.497 750.284 657.576 732.403L729.31 755.809L757.311 717.4L709.703 661.458C718.423 645.667 725.929 629.112 732.094 611.919L799.238 608.829L808.204 562.151L750.401 530.247C751.478 519.213 752.029 508.024 752.029 496.708C752.029 483.195 751.243 469.866 749.716 456.764L816.224 416.144L801.609 370.914L728.04 370.765C720.03 350.603 710.155 331.385 698.627 313.325L741.816 254.103L711.017 217.9L642.442 246.118C630.029 234.634 616.762 224.062 602.746 214.507L622.188 139.302L580.221 116.984L521.388 173.748C501.692 167.001 481.183 162.005 460.047 158.946L441.473 86L393.946 86.6445ZM410.731 769.599C561.271 769.599 683.308 647.326 683.308 496.495C683.308 345.665 561.271 223.392 410.731 223.392C260.19 223.392 138.154 345.665 138.154 496.495C138.154 647.326 260.19 769.599 410.731 769.599Z" fill="#CCCACD"/>
<path d="M686.231 506.006C686.231 655.978 564.873 777.506 415.231 777.506C265.589 777.506 144.231 655.978 144.231 506.006C144.231 356.034 265.589 234.506 415.231 234.506C564.873 234.506 686.231 356.034 686.231 506.006Z" stroke="#9F9FA1" stroke-width="33"/>
<path d="M362 339L450.5 341L462.5 410.5C462.5 410.5 428.547 424.905 407 424.5C385.569 424.097 353 408.5 353 408.5L362 339Z" fill="#D79A7E"/>
<path d="M285.735 104C273.335 137.2 285.235 178.5 292.735 195C360.235 204.833 500.635 218.6 522.235 195C543.835 171.4 534.901 116.167 527.735 91.5C534.935 37.1 506.068 5.5 492.235 0C494.735 31 466.958 45.4999 446.735 45.4999C430.235 45.4999 367.235 12 328.235 35.5C297.035 54.3 286.901 87.8332 285.735 104Z" fill="#583C21"/>
<path fill-rule="evenodd" clip-rule="evenodd" d="M360.502 142.458C342.808 131.463 326.442 121.293 306.28 132.12C294.388 138.506 291.323 170.694 293.282 207.279C289.149 203.651 284.136 203.25 280.735 214.5C276.12 229.763 281.585 242.254 286.933 254.478C289.118 259.473 291.284 264.423 292.735 269.5C295.808 280.255 300.257 282.846 303.364 282.714C307.455 301.349 312.335 316.512 317.28 324.12C339.921 358.952 375.28 381.175 406.78 381.62C438.28 382.065 471.78 360.62 494.28 333.12C500.392 325.651 506.356 308.001 511.2 286.092C514.291 286.787 519.349 284.848 522.735 272.997C524.185 267.92 526.351 262.97 528.536 257.975L528.537 257.975C533.884 245.751 539.349 233.26 534.735 217.997C531.154 206.153 525.787 207.223 521.54 211.377C524.038 171.045 520.747 135.719 507.28 132.12C485.847 126.392 470.037 135.205 453.503 144.421C439.674 152.129 425.337 160.12 406.78 160.12C388.923 160.12 374.308 151.038 360.502 142.458Z" fill="#F9C6B3"/>
<path d="M288.735 197.832C284.626 198.559 285.613 207.023 286.62 211.164C289.541 215.002 295.865 225.224 297.799 235.404C300.215 248.13 306.258 256.008 317.134 266.007C328.011 276.006 351.878 280.854 371.818 271.461C391.758 262.068 399.311 241.161 399.916 238.737C400.52 236.313 403.843 224.799 408.677 224.799C412.544 224.799 415.727 234.091 416.834 238.737C420.057 247.322 430.309 265.886 445.536 271.461C464.57 278.43 489.042 274.188 500.22 266.007C511.399 257.826 514.722 244.191 515.326 238.737C515.81 234.374 524.994 216.921 529.526 208.74C530.734 198.559 526.404 197.63 524.088 198.438C517.24 198.236 498.226 197.832 476.957 197.832C455.687 197.832 430.43 206.518 420.46 210.861H397.499C367.891 199.347 344.325 198.741 337.074 198.438C329.823 198.135 293.871 196.923 288.735 197.832Z" fill="black" stroke="black"/>
</g>
<defs>
<clipPath id="clip0_34_59">
<rect width="816" height="920" fill="white"/>
</clipPath>
</defs>
</svg>
